<?xml version="1.0" standalone="no"?>
<!DOCTYPE svg PUBLIC "-//W3C//DTD SVG 20010904//EN"
 "http://www.w3.org/TR/2001/REC-SVG-20010904/DTD/svg10.dtd">
<svg version="1.0" xmlns="http://www.w3.org/2000/svg"
 width="910.000000pt" height="910.000000pt" viewBox="0 0 910.000000 910.000000"
 preserveAspectRatio="xMidYMid meet">
<metadata>
Created by potrace 1.11, written by Peter Selinger 2001-2013
</metadata>
<g transform="translate(0.000000,910.000000) scale(0.100000,-0.100000)"
fill="#000000" stroke="none">
<path d="M3515 8190 c-299 -33 -525 -200 -580 -431 -60 -258 44 -481 279 -594
148 -70 200 -80 426 -79 182 0 201 2 283 27 204 62 331 165 393 317 21 52 28
87 32 170 5 127 -7 196 -54 289 -113 225 -411 340 -779 301z"/>
<path d="M3037 4368 c-3 -1522 -7 -2098 -16 -2168 -35 -281 -98 -521 -166
-635 -53 -88 -136 -168 -219 -210 -75 -37 -207 -75 -263 -75 -41 0 -43 -16 -8
-86 93 -187 386 -297 750 -281 285 13 485 87 653 243 87 80 144 158 205 279
94 190 159 401 201 660 52 311 51 284 51 2380 l0 1960 -592 3 -592 2 -4 -2072z"/>
<path d="M5905 3423 c-208 -29 -407 -141 -495 -280 -93 -146 -101 -372 -18
-537 64 -126 225 -230 420 -271 380 -80 772 51 893 299 60 123 68 300 20 436
-58 164 -230 296 -445 340 -90 19 -286 25 -375 13z"/>
</g>
</svg>
